<?xml version="1.0" encoding="utf-8"?>
<!-- Generator: Adobe Illustrator 24.3.0, SVG Export Plug-In . SVG Version: 6.00 Build 0)  -->
<svg version="1.1" id="Layer_1" xmlns="http://www.w3.org/2000/svg" xmlns:xlink="http://www.w3.org/1999/xlink" x="0px" y="0px"
	 viewBox="0 0 1080 298.61" style="enable-background:new 0 0 1080 298.61;" xml:space="preserve">
<style type="text/css">
	.st0{fill:url(#SVGID_1_);}
	.st1{fill:url(#SVGID_2_);}
	.st2{fill:url(#SVGID_3_);}
	.st3{fill:url(#SVGID_4_);}
	.st4{fill:url(#SVGID_5_);}
	.st5{fill:url(#SVGID_6_);}
	.st6{fill:url(#SVGID_7_);}
	.st7{fill:url(#SVGID_8_);}
	.st8{fill:url(#SVGID_9_);}
	.st9{fill:url(#SVGID_10_);}
	.st10{fill:url(#SVGID_11_);}
	.st11{fill:url(#SVGID_12_);}
	.st12{fill:url(#SVGID_13_);}
	.st13{fill:url(#SVGID_14_);}
	.st14{fill:url(#SVGID_15_);}
	.st15{fill:url(#SVGID_16_);}
	.st16{fill:url(#SVGID_17_);}
	.st17{fill:url(#SVGID_18_);}
	.st18{fill:url(#SVGID_19_);}
	.st19{fill:url(#SVGID_20_);}
	.st20{fill:url(#SVGID_21_);}
	.st21{fill:url(#SVGID_22_);}
	.st22{fill:url(#SVGID_23_);}
	.st23{fill:url(#SVGID_24_);}
</style>
<g>
	<g>
		<linearGradient id="SVGID_1_" gradientUnits="userSpaceOnUse" x1="-82.1993" y1="245.5773" x2="1332.6198" y2="245.5773">
			<stop  offset="0" style="stop-color:#FFFFFF"/>
			<stop  offset="0.0239" style="stop-color:#F2F2F2"/>
			<stop  offset="0.0961" style="stop-color:#D0D0D0"/>
			<stop  offset="0.1645" style="stop-color:#B7B7B7"/>
			<stop  offset="0.2271" style="stop-color:#A8A8A8"/>
			<stop  offset="0.2784" style="stop-color:#A3A3A3"/>
			<stop  offset="0.4258" style="stop-color:#E5E5E5"/>
			<stop  offset="0.4813" style="stop-color:#FFFFFF"/>
			<stop  offset="0.5382" style="stop-color:#DFDFDF"/>
			<stop  offset="0.611" style="stop-color:#BDBDBD"/>
			<stop  offset="0.6801" style="stop-color:#A4A4A4"/>
			<stop  offset="0.7434" style="stop-color:#959595"/>
			<stop  offset="0.7952" style="stop-color:#909090"/>
			<stop  offset="0.8329" style="stop-color:#9E9E9E"/>
			<stop  offset="0.9046" style="stop-color:#C4C4C4"/>
			<stop  offset="1" style="stop-color:#FFFFFF"/>
		</linearGradient>
		<path class="st0" d="M87.59,227.73v30.39h18.82v5.3H81.87v-35.69H87.59z"/>
		<linearGradient id="SVGID_2_" gradientUnits="userSpaceOnUse" x1="-82.1993" y1="245.5773" x2="1332.6198" y2="245.5773">
			<stop  offset="0" style="stop-color:#FFFFFF"/>
			<stop  offset="0.0239" style="stop-color:#F2F2F2"/>
			<stop  offset="0.0961" style="stop-color:#D0D0D0"/>
			<stop  offset="0.1645" style="stop-color:#B7B7B7"/>
			<stop  offset="0.2271" style="stop-color:#A8A8A8"/>
			<stop  offset="0.2784" style="stop-color:#A3A3A3"/>
			<stop  offset="0.4258" style="stop-color:#E5E5E5"/>
			<stop  offset="0.4813" style="stop-color:#FFFFFF"/>
			<stop  offset="0.5382" style="stop-color:#DFDFDF"/>
			<stop  offset="0.611" style="stop-color:#BDBDBD"/>
			<stop  offset="0.6801" style="stop-color:#A4A4A4"/>
			<stop  offset="0.7434" style="stop-color:#959595"/>
			<stop  offset="0.7952" style="stop-color:#909090"/>
			<stop  offset="0.8329" style="stop-color:#9E9E9E"/>
			<stop  offset="0.9046" style="stop-color:#C4C4C4"/>
			<stop  offset="1" style="stop-color:#FFFFFF"/>
		</linearGradient>
		<path class="st1" d="M221.8,263.42h-26.36c0-11.88,0-23.81,0-35.69h26.21v5.56h-20.5v9.64h19.68v5.3h-19.68v9.59h20.65V263.42z"/>
		<linearGradient id="SVGID_3_" gradientUnits="userSpaceOnUse" x1="-82.1993" y1="245.5007" x2="1332.6198" y2="245.5007">
			<stop  offset="0" style="stop-color:#FFFFFF"/>
			<stop  offset="0.0239" style="stop-color:#F2F2F2"/>
			<stop  offset="0.0961" style="stop-color:#D0D0D0"/>
			<stop  offset="0.1645" style="stop-color:#B7B7B7"/>
			<stop  offset="0.2271" style="stop-color:#A8A8A8"/>
			<stop  offset="0.2784" style="stop-color:#A3A3A3"/>
			<stop  offset="0.4258" style="stop-color:#E5E5E5"/>
			<stop  offset="0.4813" style="stop-color:#FFFFFF"/>
			<stop  offset="0.5382" style="stop-color:#DFDFDF"/>
			<stop  offset="0.611" style="stop-color:#BDBDBD"/>
			<stop  offset="0.6801" style="stop-color:#A4A4A4"/>
			<stop  offset="0.7434" style="stop-color:#959595"/>
			<stop  offset="0.7952" style="stop-color:#909090"/>
			<stop  offset="0.8329" style="stop-color:#9E9E9E"/>
			<stop  offset="0.9046" style="stop-color:#C4C4C4"/>
			<stop  offset="1" style="stop-color:#FFFFFF"/>
		</linearGradient>
		<path class="st2" d="M338.63,235.94c-2.55-2.5-6.32-3.82-9.64-3.82c-8.36,0-13.21,6.27-13.16,13.82c0,6.53,3.88,12.85,13.16,12.85
			c3.06,0,5.86-0.76,8.72-3.16v-7.24h-9.94v-5.1h15.25v14.63c-3.57,3.93-8.01,6.22-14.02,6.22c-13.11,0-18.77-8.72-18.77-18.2
			c0-10.3,6.58-19.07,18.77-19.07c4.74,0,9.54,1.79,13.21,5.41L338.63,235.94z"/>
		<linearGradient id="SVGID_4_" gradientUnits="userSpaceOnUse" x1="-82.1993" y1="245.5773" x2="1332.6198" y2="245.5773">
			<stop  offset="0" style="stop-color:#FFFFFF"/>
			<stop  offset="0.0239" style="stop-color:#F2F2F2"/>
			<stop  offset="0.0961" style="stop-color:#D0D0D0"/>
			<stop  offset="0.1645" style="stop-color:#B7B7B7"/>
			<stop  offset="0.2271" style="stop-color:#A8A8A8"/>
			<stop  offset="0.2784" style="stop-color:#A3A3A3"/>
			<stop  offset="0.4258" style="stop-color:#E5E5E5"/>
			<stop  offset="0.4813" style="stop-color:#FFFFFF"/>
			<stop  offset="0.5382" style="stop-color:#DFDFDF"/>
			<stop  offset="0.611" style="stop-color:#BDBDBD"/>
			<stop  offset="0.6801" style="stop-color:#A4A4A4"/>
			<stop  offset="0.7434" style="stop-color:#959595"/>
			<stop  offset="0.7952" style="stop-color:#909090"/>
			<stop  offset="0.8329" style="stop-color:#9E9E9E"/>
			<stop  offset="0.9046" style="stop-color:#C4C4C4"/>
			<stop  offset="1" style="stop-color:#FFFFFF"/>
		</linearGradient>
		<path class="st3" d="M457.96,255.93h-19.33l-3.37,7.5h-6.07l16.01-35.69h6.22l16.01,35.69h-6.07L457.96,255.93z M448.33,233.75
			l-7.55,16.98h15.09L448.33,233.75z"/>
		<linearGradient id="SVGID_5_" gradientUnits="userSpaceOnUse" x1="-82.1993" y1="245.6284" x2="1332.6198" y2="245.6284">
			<stop  offset="0" style="stop-color:#FFFFFF"/>
			<stop  offset="0.0239" style="stop-color:#F2F2F2"/>
			<stop  offset="0.0961" style="stop-color:#D0D0D0"/>
			<stop  offset="0.1645" style="stop-color:#B7B7B7"/>
			<stop  offset="0.2271" style="stop-color:#A8A8A8"/>
			<stop  offset="0.2784" style="stop-color:#A3A3A3"/>
			<stop  offset="0.4258" style="stop-color:#E5E5E5"/>
			<stop  offset="0.4813" style="stop-color:#FFFFFF"/>
			<stop  offset="0.5382" style="stop-color:#DFDFDF"/>
			<stop  offset="0.611" style="stop-color:#BDBDBD"/>
			<stop  offset="0.6801" style="stop-color:#A4A4A4"/>
			<stop  offset="0.7434" style="stop-color:#959595"/>
			<stop  offset="0.7952" style="stop-color:#909090"/>
			<stop  offset="0.8329" style="stop-color:#9E9E9E"/>
			<stop  offset="0.9046" style="stop-color:#C4C4C4"/>
			<stop  offset="1" style="stop-color:#FFFFFF"/>
		</linearGradient>
		<path class="st4" d="M584.69,258.84c-3.67,3.62-8.41,5.3-13.41,5.3c-12.95,0-18.76-8.92-18.82-18.31
			c-0.05-9.38,6.07-18.71,18.82-18.71c4.79,0,9.43,1.78,13.05,5.4l-3.82,3.67c-2.55-2.5-5.91-3.67-9.23-3.67
			c-9.08,0-13.21,6.68-13.16,13.26c0.05,6.53,3.93,13,13.16,13c3.31,0,6.99-1.38,9.48-3.88L584.69,258.84z"/>
		<linearGradient id="SVGID_6_" gradientUnits="userSpaceOnUse" x1="-82.1993" y1="245.5773" x2="1332.6198" y2="245.5773">
			<stop  offset="0" style="stop-color:#FFFFFF"/>
			<stop  offset="0.0239" style="stop-color:#F2F2F2"/>
			<stop  offset="0.0961" style="stop-color:#D0D0D0"/>
			<stop  offset="0.1645" style="stop-color:#B7B7B7"/>
			<stop  offset="0.2271" style="stop-color:#A8A8A8"/>
			<stop  offset="0.2784" style="stop-color:#A3A3A3"/>
			<stop  offset="0.4258" style="stop-color:#E5E5E5"/>
			<stop  offset="0.4813" style="stop-color:#FFFFFF"/>
			<stop  offset="0.5382" style="stop-color:#DFDFDF"/>
			<stop  offset="0.611" style="stop-color:#BDBDBD"/>
			<stop  offset="0.6801" style="stop-color:#A4A4A4"/>
			<stop  offset="0.7434" style="stop-color:#959595"/>
			<stop  offset="0.7952" style="stop-color:#909090"/>
			<stop  offset="0.8329" style="stop-color:#9E9E9E"/>
			<stop  offset="0.9046" style="stop-color:#C4C4C4"/>
			<stop  offset="1" style="stop-color:#FFFFFF"/>
		</linearGradient>
		<path class="st5" d="M686.73,243.49l10.15-15.76h6.88v0.25l-14.18,20.8v14.63h-5.71v-14.63l-13.77-20.8v-0.25h6.78L686.73,243.49z
			"/>
		<linearGradient id="SVGID_7_" gradientUnits="userSpaceOnUse" x1="-82.1993" y1="245.6284" x2="1332.6198" y2="245.6284">
			<stop  offset="0" style="stop-color:#FFFFFF"/>
			<stop  offset="0.0239" style="stop-color:#F2F2F2"/>
			<stop  offset="0.0961" style="stop-color:#D0D0D0"/>
			<stop  offset="0.1645" style="stop-color:#B7B7B7"/>
			<stop  offset="0.2271" style="stop-color:#A8A8A8"/>
			<stop  offset="0.2784" style="stop-color:#A3A3A3"/>
			<stop  offset="0.4258" style="stop-color:#E5E5E5"/>
			<stop  offset="0.4813" style="stop-color:#FFFFFF"/>
			<stop  offset="0.5382" style="stop-color:#DFDFDF"/>
			<stop  offset="0.611" style="stop-color:#BDBDBD"/>
			<stop  offset="0.6801" style="stop-color:#A4A4A4"/>
			<stop  offset="0.7434" style="stop-color:#959595"/>
			<stop  offset="0.7952" style="stop-color:#909090"/>
			<stop  offset="0.8329" style="stop-color:#9E9E9E"/>
			<stop  offset="0.9046" style="stop-color:#C4C4C4"/>
			<stop  offset="1" style="stop-color:#FFFFFF"/>
		</linearGradient>
		<path class="st6" d="M916.77,258.84c-3.67,3.62-8.41,5.3-13.41,5.3c-12.95,0-18.77-8.92-18.82-18.31
			c-0.05-9.38,6.07-18.71,18.82-18.71c4.79,0,9.43,1.78,13.05,5.4l-3.82,3.67c-2.55-2.5-5.92-3.67-9.23-3.67
			c-9.08,0-13.21,6.68-13.16,13.26c0.05,6.53,3.93,13,13.16,13c3.31,0,6.99-1.38,9.48-3.88L916.77,258.84z"/>
		<linearGradient id="SVGID_8_" gradientUnits="userSpaceOnUse" x1="-82.1993" y1="245.6284" x2="1332.6198" y2="245.6284">
			<stop  offset="0" style="stop-color:#FFFFFF"/>
			<stop  offset="0.0239" style="stop-color:#F2F2F2"/>
			<stop  offset="0.0961" style="stop-color:#D0D0D0"/>
			<stop  offset="0.1645" style="stop-color:#B7B7B7"/>
			<stop  offset="0.2271" style="stop-color:#A8A8A8"/>
			<stop  offset="0.2784" style="stop-color:#A3A3A3"/>
			<stop  offset="0.4258" style="stop-color:#E5E5E5"/>
			<stop  offset="0.4813" style="stop-color:#FFFFFF"/>
			<stop  offset="0.5382" style="stop-color:#DFDFDF"/>
			<stop  offset="0.611" style="stop-color:#BDBDBD"/>
			<stop  offset="0.6801" style="stop-color:#A4A4A4"/>
			<stop  offset="0.7434" style="stop-color:#959595"/>
			<stop  offset="0.7952" style="stop-color:#909090"/>
			<stop  offset="0.8329" style="stop-color:#9E9E9E"/>
			<stop  offset="0.9046" style="stop-color:#C4C4C4"/>
			<stop  offset="1" style="stop-color:#FFFFFF"/>
		</linearGradient>
		<path class="st7" d="M1039.62,245.73c0,9.64-5.86,18.46-18.25,18.46c-12.39,0-18.26-9.03-18.26-18.41
			c0-10.86,7.6-18.71,18.36-18.71C1033.65,227.12,1039.62,236.09,1039.62,245.73z M1021.36,258.94c8.87,0,12.59-6.27,12.59-13.1
			c0-6.58-3.77-13.41-12.49-13.56c-8.26,0-12.7,5.76-12.7,13.56C1008.87,252.16,1012.54,258.94,1021.36,258.94z"/>
	</g>
	<linearGradient id="SVGID_9_" gradientUnits="userSpaceOnUse" x1="-82.1993" y1="146.0045" x2="1332.6198" y2="146.0045">
		<stop  offset="0" style="stop-color:#FFFFFF"/>
		<stop  offset="0.0239" style="stop-color:#F2F2F2"/>
		<stop  offset="0.0961" style="stop-color:#D0D0D0"/>
		<stop  offset="0.1645" style="stop-color:#B7B7B7"/>
		<stop  offset="0.2271" style="stop-color:#A8A8A8"/>
		<stop  offset="0.2784" style="stop-color:#A3A3A3"/>
		<stop  offset="0.4258" style="stop-color:#E5E5E5"/>
		<stop  offset="0.4813" style="stop-color:#FFFFFF"/>
		<stop  offset="0.5382" style="stop-color:#DFDFDF"/>
		<stop  offset="0.611" style="stop-color:#BDBDBD"/>
		<stop  offset="0.6801" style="stop-color:#A4A4A4"/>
		<stop  offset="0.7434" style="stop-color:#959595"/>
		<stop  offset="0.7952" style="stop-color:#909090"/>
		<stop  offset="0.8329" style="stop-color:#9E9E9E"/>
		<stop  offset="0.9046" style="stop-color:#C4C4C4"/>
		<stop  offset="1" style="stop-color:#FFFFFF"/>
	</linearGradient>
	<path class="st8" d="M39.19,270.73c-0.45-0.15-0.6-0.45-0.6-0.9s0-0.75,0.15-1.2c0.15-0.3,0.15-0.6,0.3-0.75
		c3.74-13.48,8.24-26.65,13.48-39.38c29.95-74.12,60.49-139.1,91.94-194.95c0.3-0.3,0.75-1.35,1.65-2.99
		c-0.75-0.3-1.5-0.45-2.25-0.45c-36.68,0-70.67,2.25-102.12,6.74l-6.14,0.9c-5.39,1.05-9.88,1.5-13.63,1.5c-0.9,0-1.65,0-2.25-0.15
		c-1.95-0.15-2.99-1.35-2.99-3.44c0-1.35,0.9-2.4,2.55-3.14l6.89-1.8c20.81-4.19,41.78-6.29,63.04-6.29l7.94,0.15
		c9.73,0.3,19.62,0.6,29.5,0.75l19.62,0.45c1.65,0,2.84-0.45,3.59-1.5c0.15-0.45,0.6-0.9,1.05-1.35c1.05-1.05,2.25-1.65,3.44-1.65
		c0.9,0,1.8,0.3,2.55,1.05s1.2,1.65,1.2,2.55l-0.15,0.6c0.75,0.45,1.65,0.6,2.85,0.6l7.49,0.3c40.73,1.05,72.02,3.14,93.73,6.14
		c0.9,0.15,2.99,0.15,6.14,0.15c3.14,0,4.64,0.9,4.64,2.7c0,1.05-0.75,1.65-2.25,1.65c-0.45,0-0.75,0-1.05-0.15
		c-3.29-0.75-6.59-1.2-9.73-1.65c-2.85-0.45-5.54-0.9-8.24-1.35c-4.64-0.75-12.73-1.5-24.41-1.95s-23.51-0.9-35.49-1.2
		c-12.13-0.3-20.81-0.45-26.35-0.45l-7.79-0.15c-1.35,0-2.25,0.6-2.99,1.8c-8.54,16.77-17.52,33.39-26.95,49.71
		c-28.45,49.71-54.95,105.11-79.51,166.06c-2.7,6.89-5.09,13.78-7.19,20.66c-0.15,0.15-0.15,0.45-0.15,0.75
		c-0.3,1.05-0.6,1.65-1.05,1.65H39.19z"/>
	<linearGradient id="SVGID_10_" gradientUnits="userSpaceOnUse" x1="-82.1993" y1="129.6084" x2="1332.6198" y2="129.6084">
		<stop  offset="0" style="stop-color:#FFFFFF"/>
		<stop  offset="0.0239" style="stop-color:#F2F2F2"/>
		<stop  offset="0.0961" style="stop-color:#D0D0D0"/>
		<stop  offset="0.1645" style="stop-color:#B7B7B7"/>
		<stop  offset="0.2271" style="stop-color:#A8A8A8"/>
		<stop  offset="0.2784" style="stop-color:#A3A3A3"/>
		<stop  offset="0.4258" style="stop-color:#E5E5E5"/>
		<stop  offset="0.4813" style="stop-color:#FFFFFF"/>
		<stop  offset="0.5382" style="stop-color:#DFDFDF"/>
		<stop  offset="0.611" style="stop-color:#BDBDBD"/>
		<stop  offset="0.6801" style="stop-color:#A4A4A4"/>
		<stop  offset="0.7434" style="stop-color:#959595"/>
		<stop  offset="0.7952" style="stop-color:#909090"/>
		<stop  offset="0.8329" style="stop-color:#9E9E9E"/>
		<stop  offset="0.9046" style="stop-color:#C4C4C4"/>
		<stop  offset="1" style="stop-color:#FFFFFF"/>
	</linearGradient>
	<path class="st9" d="M116.14,190.48c-1.8,0-3.14-1.2-3.14-3.14c0-0.3,0-0.75,0.15-1.05c0.45-2.84,1.5-5.69,2.85-8.09
		c16.77-30.1,50.76-87.59,68.73-105.86C189.06,67.84,193.71,65,197,65c2.55,0,4.19,1.8,4.19,5.99c0,1.2-0.15,2.7-0.45,4.49
		c-1.95,10.33-11.83,26.35-21.86,38.48c-10.03,12.58-19.91,21.56-33.84,29.95c-1.5,0.9-2.99,2.4-3.89,3.89l-9.43,16.47
		c0.15,0.15,0.3,0.45,0.45,0.6c4.19-3.44,10.93-9.28,15.42-11.83c1.95-1.2,3.89-1.65,5.54-1.65c3.74,0,6.14,2.85,6.29,8.09v2.84
		c0,4.34-0.15,8.54-0.45,12.88v1.95c0,2.7,0.3,5.24,1.2,7.64c1.5,3.74,2.99,6.14,7.04,6.14h0.3c15.72-0.15,42.52-21.86,52.71-30.55
		c0.75-0.75,1.2-0.9,1.65-0.9h0.45v0.15c0,0.6-0.6,1.8-1.35,2.4c-10.33,8.83-34.29,30.4-52.26,32.04c-1.05,0.15-2.1,0.15-3.14,0.15
		c-4.94,0-8.39-1.8-10.33-6.89c-1.2-2.99-1.8-5.99-1.8-9.28V177c0.15-2.1,0.6-9.13,0.6-14.52c0-2.99-0.15-5.39-0.6-6.29
		c-2.7,0.75-4.49,2.1-6.14,3.29c-17.67,11.83-22.76,27.4-29.05,30.4C117.49,190.33,116.74,190.48,116.14,190.48z M146.24,139.87
		c0,0.15,0,0.3,0.3,0.3c0.15,0,0.45-0.15,0.9-0.3c12.43-7.49,21.26-17.22,29.8-27.55c9.28-11.38,17.22-25.46,20.66-36.83
		c0.45-1.65,0.75-2.99,0.75-3.74c0-1.2-0.45-1.65-1.05-1.65c-2.1,0-6.44,4.34-8.39,6.29c-15.27,15.12-34.89,48.21-42.37,61.69
		C146.54,138.67,146.24,139.42,146.24,139.87z"/>
	<linearGradient id="SVGID_11_" gradientUnits="userSpaceOnUse" x1="-82.1993" y1="167.8655" x2="1332.6198" y2="167.8655">
		<stop  offset="0" style="stop-color:#FFFFFF"/>
		<stop  offset="0.0239" style="stop-color:#F2F2F2"/>
		<stop  offset="0.0961" style="stop-color:#D0D0D0"/>
		<stop  offset="0.1645" style="stop-color:#B7B7B7"/>
		<stop  offset="0.2271" style="stop-color:#A8A8A8"/>
		<stop  offset="0.2784" style="stop-color:#A3A3A3"/>
		<stop  offset="0.4258" style="stop-color:#E5E5E5"/>
		<stop  offset="0.4813" style="stop-color:#FFFFFF"/>
		<stop  offset="0.5382" style="stop-color:#DFDFDF"/>
		<stop  offset="0.611" style="stop-color:#BDBDBD"/>
		<stop  offset="0.6801" style="stop-color:#A4A4A4"/>
		<stop  offset="0.7434" style="stop-color:#959595"/>
		<stop  offset="0.7952" style="stop-color:#909090"/>
		<stop  offset="0.8329" style="stop-color:#9E9E9E"/>
		<stop  offset="0.9046" style="stop-color:#C4C4C4"/>
		<stop  offset="1" style="stop-color:#FFFFFF"/>
	</linearGradient>
	<path class="st10" d="M225,188.98c-7.79,0-11.98-5.69-11.98-12.13c0-2.1,0.45-4.34,1.35-6.44c4.49-10.63,12.13-18.12,22.76-22.76
		c1.5-0.6,2.85-0.9,3.89-0.9c3.44,0,5.09,2.4,5.09,5.09c0,1.35-0.45,2.85-1.35,4.04c-1.5,1.95-3.14,4.19-5.09,5.54
		c-4.34,2.99-8.98,5.54-13.48,8.09c-1.35,0.6-2.85,1.2-4.34,1.2c-0.9,0-1.8-0.15-2.84-0.6c-1.65,2.7-2.55,5.39-2.55,7.64
		c0,4.94,3.59,8.24,9.73,8.24h2.1c24.71,0,70.52-10.48,101.67-16.92c54.05-11.23,110.65-18.87,153.63-18.87
		c3.44,0,6.74,0,10.03,0.15c10.63,0.3,21.26,1.05,31.74,3.59c3.74,1.05,11.53,3.44,13.48,7.19c0.3,0.75,0.6,1.5,0.6,2.1
		c0,2.1-1.5,4.04-3.74,4.04c-1.2,0-2.85-0.75-4.49-2.55c-5.69-6.44-16.47-8.24-24.71-9.28c-8.39-0.9-18.12-1.35-28.9-1.35
		c-39.68,0-94.18,6.14-147.19,17.37c-38.18,7.94-74.57,16.62-104.06,17.52H225z M221.55,165.92c6.44-1.95,16.02-9.58,16.92-13.18
		C231.14,154.99,226.34,159.93,221.55,165.92z"/>
	<g>
		<linearGradient id="SVGID_12_" gradientUnits="userSpaceOnUse" x1="239.0276" y1="186.4403" x2="1256.8418" y2="186.4403">
			<stop  offset="0" style="stop-color:#B6883B"/>
			<stop  offset="0.0316" style="stop-color:#B98D3F"/>
			<stop  offset="0.4275" style="stop-color:#E2C868"/>
			<stop  offset="0.617" style="stop-color:#F2DF78"/>
			<stop  offset="1" style="stop-color:#AD8933"/>
		</linearGradient>
		<path class="st11" d="M355.16,204.4h16.63v-35.92c-5.55,0.9-11.09,1.86-16.63,2.86V204.4z"/>
		<linearGradient id="SVGID_13_" gradientUnits="userSpaceOnUse" x1="239.0276" y1="193.5454" x2="1256.8418" y2="193.5454">
			<stop  offset="0" style="stop-color:#B6883B"/>
			<stop  offset="0.0316" style="stop-color:#B98D3F"/>
			<stop  offset="0.4275" style="stop-color:#E2C868"/>
			<stop  offset="0.617" style="stop-color:#F2DF78"/>
			<stop  offset="1" style="stop-color:#AD8933"/>
		</linearGradient>
		<path class="st12" d="M282.99,204.4h16.78v-21.71c-5.67,1.19-11.27,2.34-16.78,3.42V204.4z"/>
		<linearGradient id="SVGID_14_" gradientUnits="userSpaceOnUse" x1="239.0276" y1="136.7859" x2="1256.8418" y2="136.7859">
			<stop  offset="0" style="stop-color:#B6883B"/>
			<stop  offset="0.0316" style="stop-color:#B98D3F"/>
			<stop  offset="0.4275" style="stop-color:#E2C868"/>
			<stop  offset="0.617" style="stop-color:#F2DF78"/>
			<stop  offset="1" style="stop-color:#AD8933"/>
		</linearGradient>
		<path class="st13" d="M355.16,145.26h-55.39V99.59h-16.78v74.39c5.6-1.09,11.24-2.23,16.78-3.37v-9.77h47.58
			c8.26-1.59,16.42-3.05,24.44-4.39V99.59h-16.63V145.26z"/>
		<linearGradient id="SVGID_15_" gradientUnits="userSpaceOnUse" x1="239.0276" y1="125.1736" x2="1256.8418" y2="125.1736">
			<stop  offset="0" style="stop-color:#B6883B"/>
			<stop  offset="0.0316" style="stop-color:#B98D3F"/>
			<stop  offset="0.4275" style="stop-color:#E2C868"/>
			<stop  offset="0.617" style="stop-color:#F2DF78"/>
			<stop  offset="1" style="stop-color:#AD8933"/>
		</linearGradient>
		<path class="st14" d="M442.46,117.26l12.97,29.19c5.8-0.36,11.43-0.61,16.84-0.76l-20.68-46.1h-18.26l-22.96,51.17
			c6.17-0.77,12.21-1.47,18.12-2.08L442.46,117.26z"/>
		<linearGradient id="SVGID_16_" gradientUnits="userSpaceOnUse" x1="239.0276" y1="181.577" x2="1256.8418" y2="181.577">
			<stop  offset="0" style="stop-color:#B6883B"/>
			<stop  offset="0.0316" style="stop-color:#B98D3F"/>
			<stop  offset="0.4275" style="stop-color:#E2C868"/>
			<stop  offset="0.617" style="stop-color:#F2DF78"/>
			<stop  offset="1" style="stop-color:#AD8933"/>
		</linearGradient>
		<path class="st15" d="M477.59,158.76c-5.29,0-10.81,0.11-16.55,0.33l3.57,8.03h-44.32l2.37-5.32c-5.96,0.58-12.02,1.26-18.15,2.02
			L386.3,204.4h17.82l9.89-22.01h56.75l10.03,22.01h17.82l-20.48-45.64H477.59z"/>
		<linearGradient id="SVGID_17_" gradientUnits="userSpaceOnUse" x1="239.0276" y1="182.7971" x2="1256.8418" y2="182.7971">
			<stop  offset="0" style="stop-color:#B6883B"/>
			<stop  offset="0.0316" style="stop-color:#B98D3F"/>
			<stop  offset="0.4275" style="stop-color:#E2C868"/>
			<stop  offset="0.617" style="stop-color:#F2DF78"/>
			<stop  offset="1" style="stop-color:#AD8933"/>
		</linearGradient>
		<path class="st16" d="M513.12,161.2v43.2h16.63v-34.69c-0.69-0.53-1.35-1.14-2-1.83C524.47,164.15,518.44,162.26,513.12,161.2z"/>
		<linearGradient id="SVGID_18_" gradientUnits="userSpaceOnUse" x1="239.0276" y1="124.9868" x2="1256.8418" y2="124.9868">
			<stop  offset="0" style="stop-color:#B6883B"/>
			<stop  offset="0.0316" style="stop-color:#B98D3F"/>
			<stop  offset="0.4275" style="stop-color:#E2C868"/>
			<stop  offset="0.617" style="stop-color:#F2DF78"/>
			<stop  offset="1" style="stop-color:#AD8933"/>
		</linearGradient>
		<path class="st17" d="M513.12,147.01c4.38,0.54,8.85,1.3,13.35,2.39l0.15,0.04c1.1,0.3,2.15,0.62,3.13,0.95V99.59h-16.63V147.01z"
			/>
		<linearGradient id="SVGID_19_" gradientUnits="userSpaceOnUse" x1="239.0276" y1="151.9189" x2="1256.8418" y2="151.9189">
			<stop  offset="0" style="stop-color:#B6883B"/>
			<stop  offset="0.0316" style="stop-color:#B98D3F"/>
			<stop  offset="0.4275" style="stop-color:#E2C868"/>
			<stop  offset="0.617" style="stop-color:#F2DF78"/>
			<stop  offset="1" style="stop-color:#AD8933"/>
		</linearGradient>
		<path class="st18" d="M613.44,166.52c20.66-2.99,28.45-17.67,28.45-32.64c0-17.67-12.73-34.29-36.99-34.29
			c-16.32,0-32.49-0.15-48.81-0.15V204.4h16.77v-36.24h22.16l31.89,36.24h19.62l-1.8-2.99L613.44,166.52z M572.86,152.89v-38.03
			h32.04c13.78,0,19.92,9.88,19.92,19.32c0,9.88-6.14,18.72-20.06,18.72H572.86z"/>
		<linearGradient id="SVGID_20_" gradientUnits="userSpaceOnUse" x1="239.0276" y1="151.6943" x2="1256.8418" y2="151.6943">
			<stop  offset="0" style="stop-color:#B6883B"/>
			<stop  offset="0.0316" style="stop-color:#B98D3F"/>
			<stop  offset="0.4275" style="stop-color:#E2C868"/>
			<stop  offset="0.617" style="stop-color:#F2DF78"/>
			<stop  offset="1" style="stop-color:#AD8933"/>
		</linearGradient>
		<path class="st19" d="M701.93,141.96c-13.78-1.95-25.46-4.79-25.46-14.97c0-10.03,10.18-15.87,24.26-15.87
			c10.93,0.15,20.96,4.49,25.9,11.68l12.73-8.53c-8.83-14.08-23.96-17.67-39.08-17.67c-18.87,0-40.58,8.39-40.43,30.1
			c0,22.46,19.76,27.7,40.58,30.55c14.67,1.95,26.8,5.84,26.8,17.22c0,13.18-13.93,17.37-26.5,17.37
			c-12.13,0-25.15-4.49-32.64-17.22l-12.58,8.39c9.58,17.67,25.01,23.81,45.07,23.81c21.86,0,43.27-8.83,43.42-32.34
			C744,150.95,723.49,144.96,701.93,141.96z"/>
		<linearGradient id="SVGID_21_" gradientUnits="userSpaceOnUse" x1="239.0276" y1="151.9939" x2="1256.8418" y2="151.9939">
			<stop  offset="0" style="stop-color:#B6883B"/>
			<stop  offset="0.0316" style="stop-color:#B98D3F"/>
			<stop  offset="0.4275" style="stop-color:#E2C868"/>
			<stop  offset="0.617" style="stop-color:#F2DF78"/>
			<stop  offset="1" style="stop-color:#AD8933"/>
		</linearGradient>
		<path class="st20" d="M752.23,114.71h34.44v89.69h16.92v-89.69h34.29V99.59c-30.1,0-55.55,0-85.65,0V114.71z"/>
		<linearGradient id="SVGID_22_" gradientUnits="userSpaceOnUse" x1="239.0276" y1="152.1433" x2="1256.8418" y2="152.1433">
			<stop  offset="0" style="stop-color:#B6883B"/>
			<stop  offset="0.0316" style="stop-color:#B98D3F"/>
			<stop  offset="0.4275" style="stop-color:#E2C868"/>
			<stop  offset="0.617" style="stop-color:#F2DF78"/>
			<stop  offset="1" style="stop-color:#AD8933"/>
		</linearGradient>
		<path class="st21" d="M898.07,97.64c-31.59,0-53.9,23.06-53.9,54.95c0,27.55,17.22,54.05,53.6,54.05c36.39,0,53.6-25.9,53.6-54.2
			C951.38,124.14,933.86,97.79,898.07,97.64z M897.77,191.22c-25.9,0-36.69-19.91-36.98-38.48c0-22.91,13.03-39.83,37.28-39.83
			c25.6,0.45,36.68,20.51,36.68,39.83C934.76,172.81,923.83,191.22,897.77,191.22z"/>
		<linearGradient id="SVGID_23_" gradientUnits="userSpaceOnUse" x1="239.0276" y1="151.9939" x2="1256.8418" y2="151.9939">
			<stop  offset="0" style="stop-color:#B6883B"/>
			<stop  offset="0.0316" style="stop-color:#B98D3F"/>
			<stop  offset="0.4275" style="stop-color:#E2C868"/>
			<stop  offset="0.617" style="stop-color:#F2DF78"/>
			<stop  offset="1" style="stop-color:#AD8933"/>
		</linearGradient>
		<polygon class="st22" points="1043.61,99.59 1043.61,174.15 984.16,99.59 971.29,99.59 971.29,204.4 988.21,204.4 988.21,130.43 
			1047.65,204.4 1060.38,204.4 1060.38,99.59 		"/>
	</g>
	<linearGradient id="SVGID_24_" gradientUnits="userSpaceOnUse" x1="-82.1993" y1="258.8168" x2="1332.6198" y2="258.8168">
		<stop  offset="0" style="stop-color:#FFFFFF"/>
		<stop  offset="0.0239" style="stop-color:#F2F2F2"/>
		<stop  offset="0.0961" style="stop-color:#D0D0D0"/>
		<stop  offset="0.1645" style="stop-color:#B7B7B7"/>
		<stop  offset="0.2271" style="stop-color:#A8A8A8"/>
		<stop  offset="0.2784" style="stop-color:#A3A3A3"/>
		<stop  offset="0.4258" style="stop-color:#E5E5E5"/>
		<stop  offset="0.4813" style="stop-color:#FFFFFF"/>
		<stop  offset="0.5382" style="stop-color:#DFDFDF"/>
		<stop  offset="0.611" style="stop-color:#BDBDBD"/>
		<stop  offset="0.6801" style="stop-color:#A4A4A4"/>
		<stop  offset="0.7434" style="stop-color:#959595"/>
		<stop  offset="0.7952" style="stop-color:#909090"/>
		<stop  offset="0.8329" style="stop-color:#9E9E9E"/>
		<stop  offset="0.9046" style="stop-color:#C4C4C4"/>
		<stop  offset="1" style="stop-color:#FFFFFF"/>
	</linearGradient>
	<circle class="st23" cx="1057.95" cy="258.82" r="5.32"/>
</g>
</svg>
